<?xml version="1.0" encoding="UTF-8"?>
<svg width="464px" height="225px" viewBox="0 0 464 225" version="1.1" xmlns="http://www.w3.org/2000/svg" xmlns:xlink="http://www.w3.org/1999/xlink">
    <!-- Generator: Sketch 44.1 (41455) - http://www.bohemiancoding.com/sketch -->
    <title>logo</title>
    <desc>Created with Sketch.</desc>
    <defs></defs>
    <g id="Assets" stroke="none" stroke-width="1" fill="none" fill-rule="evenodd">
        <g id="Flatiron-School-Logo---Light" transform="translate(-102.000000, -82.000000)">
            <g id="logo" transform="translate(102.000000, 82.000000)">
                <g id="wordmark" transform="translate(100.000000, 37.000000)" fill="#4D4D56">
                    <polygon id="Fill-3" points="2.67567568 85.3183391 2.67567568 1.2733564 42.6486486 1.2733564 42.6486486 13.8456879 17.0011001 13.8456879 17.0011001 35.4965873 36.17801 35.4965873 36.17801 48.0689189 17.0011001 48.0689189 17.0011001 85.3183391"></polygon>
                    <polygon id="Fill-4" points="50.4864865 85.3183391 50.4864865 1.2733564 64.8063399 1.2733564 64.8063399 72.7460076 87.3243243 72.7460076 87.3243243 85.3183391"></polygon>
                    <path d="M113.674104,54.1212975 L125.242821,54.1212975 L119.574149,18.0357962 L119.342775,18.0357962 L113.674104,54.1212975 Z M109.044622,85.3183391 L95.1621622,85.3183391 L110.55055,1.2733564 L128.368369,1.2733564 L143.756757,85.3183391 L129.872302,85.3183391 L127.32519,66.693629 L111.591735,66.693629 L109.044622,85.3183391 Z" id="Fill-5"></path>
                    <polygon id="Fill-6" points="154.573374 13.8456879 140.621622 13.8456879 140.621622 1.2733564 182.945946 1.2733564 182.945946 13.8456879 168.992189 13.8456879 168.992189 85.3183391 154.573374 85.3183391"></polygon>
                    <polygon id="Fill-7" points="189.216216 85.3183391 203.324324 85.3183391 203.324324 1.2733564 189.216216 1.2733564"></polygon>
                    <path d="M227.777746,38.9883442 L232.838545,38.9883442 C240.546744,38.9883442 243.422197,36.0785468 243.422197,26.066837 C243.422197,16.057134 240.546744,13.1453298 232.838545,13.1453298 L227.777746,13.1453298 L227.777746,38.9883442 Z M227.777746,85.3183391 L213.513514,85.3183391 L213.513514,1.2733564 L233.528654,1.2733564 C249.518159,1.2733564 257.68643,8.14047827 257.68643,26.066837 C257.68643,39.5703037 252.508631,45.0427296 247.677869,47.2541756 L259.756757,85.3183391 L245.262487,85.3183391 L235.138908,50.5131487 C233.298617,50.7459325 230.308146,50.8623244 227.777746,50.8623244 L227.777746,85.3183391 Z" id="Fill-8"></path>
                    <path d="M280.349686,64.9983532 C280.349686,71.2855941 282.197514,74.3147916 287.971977,74.3147916 C293.748432,74.3147916 295.59626,71.2855941 295.59626,64.9983532 L295.59626,22.3788094 C295.59626,16.0915685 293.748432,13.0643785 287.971977,13.0643785 C282.197514,13.0643785 280.349686,16.0915685 280.349686,22.3788094 L280.349686,64.9983532 Z M266.027027,22.0295182 C266.027027,10.1536188 272.958374,0.487889273 287.971977,0.487889273 C302.987572,0.487889273 309.918919,10.1536188 309.918919,22.0295182 L309.918919,65.3476444 C309.918919,77.2235438 302.987572,86.8892734 287.971977,86.8892734 C272.958374,86.8892734 266.027027,77.2235438 266.027027,65.3476444 L266.027027,22.0295182 Z" id="Fill-10"></path>
                    <polygon id="Fill-12" points="320.108108 85.3183391 320.108108 1.2733564 333.389975 1.2733564 350.833627 49.3492297 351.064616 49.3492297 351.064616 1.2733564 364 1.2733564 364 85.3183391 351.526594 85.3183391 333.276472 32.8195737 333.045483 32.8195737 333.045483 85.3183391"></polygon>
                    <path d="M30.400967,123.489536 C29.8265435,116.268845 26.0353489,114.173098 22.816597,114.173098 C18.2212096,114.173098 15.6937465,117.202295 15.6937465,122.441663 C15.6937465,136.764608 44.6486486,143.634 44.6486486,166.458371 C44.6486486,180.313587 35.4558931,188 22.1292697,188 C8.91555015,188 1.33118018,177.286397 0.756756757,164.711915 L14.3151303,162.730591 C14.8895538,171.232017 18.2212096,175.423511 22.816597,175.423511 C27.7586192,175.423511 31.0902751,172.745612 31.0902751,167.739105 C31.0902751,151.087553 2.13537297,146.663198 2.13537297,122.558093 C2.13537297,109.166591 10.1792817,101.598616 24.197194,101.598616 C35.8005472,101.598616 42.695609,110.098034 43.9593405,121.975941 L30.400967,123.489536 Z" id="Fill-14"></path>
                    <path d="M82.0858399,130.826658 L82.0858399,124.306556 C82.0858399,117.202295 78.8589412,114.175105 75.16907,114.175105 C69.4067508,114.175105 67.5628087,117.202295 67.5628087,123.491543 L67.5628087,166.10908 C67.5628087,172.396321 69.4067508,175.423511 75.16907,175.423511 C80.3571442,175.423511 82.0858399,172.396321 82.0858399,166.924093 L82.0858399,156.792642 L96.3783784,156.792642 L96.3783784,166.458371 C96.3783784,178.336278 89.4616084,188 75.16907,188 C60.1870402,188 53.2702703,178.336278 53.2702703,166.458371 L53.2702703,123.142252 C53.2702703,111.264345 60.1870402,101.598616 75.16907,101.598616 C89.4616084,101.598616 96.3783784,112.079358 96.3783784,124.655847 L96.3783784,130.826658 L82.0858399,130.826658 Z" id="Fill-17"></path>
                    <polygon id="Fill-19" points="105 186.429066 105 102.384083 119.322659 102.384083 119.322659 136.607314 134.569233 136.607314 134.569233 102.384083 148.891892 102.384083 148.891892 186.429066 134.569233 186.429066 134.569233 149.179646 119.322659 149.179646 119.322659 186.429066"></polygon>
                    <path d="M172.619957,166.10908 C172.619957,172.396321 174.467785,175.425518 180.242248,175.425518 C186.018702,175.425518 187.86653,172.396321 187.86653,166.10908 L187.86653,123.491543 C187.86653,117.202295 186.018702,114.175105 180.242248,114.175105 C174.467785,114.175105 172.619957,117.202295 172.619957,123.491543 L172.619957,166.10908 Z M158.297297,123.142252 C158.297297,111.264345 165.228644,101.598616 180.242248,101.598616 C195.257842,101.598616 202.189189,111.264345 202.189189,123.142252 L202.189189,166.458371 C202.189189,178.336278 195.257842,188 180.242248,188 C165.228644,188 158.297297,178.336278 158.297297,166.458371 L158.297297,123.142252 Z" id="Fill-21"></path>
                    <path d="M225.917254,166.10908 C225.917254,172.396321 227.765082,175.425518 233.539545,175.425518 C239.315999,175.425518 241.163827,172.396321 241.163827,166.10908 L241.163827,123.491543 C241.163827,117.202295 239.315999,114.175105 233.539545,114.175105 C227.765082,114.175105 225.917254,117.202295 225.917254,123.491543 L225.917254,166.10908 Z M211.594595,123.142252 C211.594595,111.264345 218.525941,101.598616 233.539545,101.598616 C248.55514,101.598616 255.486486,111.264345 255.486486,123.142252 L255.486486,166.458371 C255.486486,178.336278 248.55514,188 233.539545,188 C218.525941,188 211.594595,178.336278 211.594595,166.458371 L211.594595,123.142252 Z" id="Fill-23"></path>
                    <polygon id="Fill-25" points="264.108108 186.429066 264.108108 102.384083 278.427962 102.384083 278.427962 173.856734 300.945946 173.856734 300.945946 186.429066"></polygon>
                </g>
                <g id="icon" fill="#00B3E6">
                    <polygon id="Fill-1" points="36.4297755 0 0 122.532872 16.0817555 122.532872 52.5135135 0"></polygon>
                    <polygon id="Fill-2" points="69.3493016 0 32.9189189 122.532872 49.0020497 122.532872 85.4324324 0"></polygon>
                </g>
            </g>
        </g>
    </g>
</svg>